        <svg
          xmlns="http://www.w3.org/2000/svg"
          width="300"
          height="15"
          viewBox="0 0 418.175 20.911"
        >
          <g
            id="Uperttech_Certifica_F치cil"
            data-name="Uperttech Certifica F치cil"
            transform="translate(-0.225 0.589)"
          >
            <path
              id="logo"
              d="M129.713-36.094a.565.565,0,0,1-.639-.639v-7.722H115.488v7.722a.565.565,0,0,1-.639.639h-3.136c-.445,0-.667-.213-.667-.639V-55.778c0-.425.221-.638.667-.638h3.136a.565.565,0,0,1,.639.638v7.548h13.586v-7.548a.565.565,0,0,1,.639-.638h3.136q.667,0,.668.638v19.045q0,.639-.668.639Zm-35.506,0a14.865,14.865,0,0,1-3.745-.407,5.72,5.72,0,0,1-2.511-1.32A5.342,5.342,0,0,1,86.53-40.2a12.205,12.205,0,0,1-.451-3.556v-4.993a12.066,12.066,0,0,1,.451-3.542,5.348,5.348,0,0,1,1.422-2.366A5.842,5.842,0,0,1,90.463-56a14.409,14.409,0,0,1,3.745-.42H107.3a.565.565,0,0,1,.639.638v2.846q0,.667-.639.668H94.382a7.744,7.744,0,0,0-1.872.188,2.425,2.425,0,0,0-1.176.639,2.606,2.606,0,0,0-.625,1.205,8.08,8.08,0,0,0-.188,1.915v4.123a8.268,8.268,0,0,0,.188,1.931,2.611,2.611,0,0,0,.625,1.219,2.432,2.432,0,0,0,1.176.639,7.744,7.744,0,0,0,1.872.188H107.3a.565.565,0,0,1,.639.639v2.845a.565.565,0,0,1-.639.639Zm-24.676,0a14.865,14.865,0,0,1-3.745-.407,5.72,5.72,0,0,1-2.511-1.32A5.335,5.335,0,0,1,61.853-40.2a12.238,12.238,0,0,1-.45-3.556v-4.993a12.1,12.1,0,0,1,.45-3.542,5.341,5.341,0,0,1,1.423-2.366A5.842,5.842,0,0,1,65.786-56a14.409,14.409,0,0,1,3.745-.42H82.305q.668,0,.668.638v2.758q0,.639-.668.638H69.619a7.746,7.746,0,0,0-1.873.189,2.526,2.526,0,0,0-1.19.639,2.435,2.435,0,0,0-.625,1.22,8.773,8.773,0,0,0-.175,1.9v.29h16.4a.565.565,0,0,1,.639.639v2.293a.565.565,0,0,1-.639.639h-16.4v.493a8.779,8.779,0,0,0,.175,1.9,2.435,2.435,0,0,0,.625,1.219,2.526,2.526,0,0,0,1.19.639,7.8,7.8,0,0,0,1.873.188H82.305q.668,0,.668.639v2.758q0,.639-.668.639Zm-23.486,0a.565.565,0,0,1-.639-.639V-52.264H36.291a.59.59,0,0,1-.668-.668v-2.846q0-.637.668-.638H58.964q.667,0,.668.638v2.846a.591.591,0,0,1-.668.668H49.848v15.531a.565.565,0,0,1-.639.639Zm-25.344,0a.565.565,0,0,1-.639-.639V-52.264H10.947a.59.59,0,0,1-.668-.668v-2.846q0-.637.668-.638H33.619q.668,0,.669.638v2.846a.591.591,0,0,1-.669.668H24.5v15.531a.564.564,0,0,1-.638.639Zm-15.881,0a1.1,1.1,0,0,1-.522-.087,1.018,1.018,0,0,1-.291-.291L-.58-42.51H-9.956v5.777a.565.565,0,0,1-.639.639H-13.73q-.668,0-.668-.639V-55.545a.77.77,0,0,1,.871-.87H2.063q3.339,0,4.79,1.509a6.211,6.211,0,0,1,1.453,4.471v1.654a6.786,6.786,0,0,1-1.016,3.949,4.856,4.856,0,0,1-3.31,1.858L8.943-36.82a.458.458,0,0,1,.087.436q-.058.29-.464.291Zm-14.776-16v6.038H1.163a2.811,2.811,0,0,0,2.09-.638,2.724,2.724,0,0,0,.61-1.945v-1.22a2.727,2.727,0,0,0-.61-1.946,2.815,2.815,0,0,0-2.09-.638H-9.579C-9.831-52.438-9.956-52.322-9.956-52.09Zm-21.222,16a14.868,14.868,0,0,1-3.746-.407,5.73,5.73,0,0,1-2.511-1.32A5.343,5.343,0,0,1-38.858-40.2a12.241,12.241,0,0,1-.449-3.556v-4.993a12.1,12.1,0,0,1,.449-3.542,5.35,5.35,0,0,1,1.423-2.366A5.853,5.853,0,0,1-34.924-56a14.412,14.412,0,0,1,3.746-.42H-18.4q.667,0,.668.638v2.758q0,.639-.668.638H-31.09a7.746,7.746,0,0,0-1.873.189,2.529,2.529,0,0,0-1.191.639,2.441,2.441,0,0,0-.624,1.22,8.773,8.773,0,0,0-.175,1.9v.29h16.4a.565.565,0,0,1,.639.639v2.293a.565.565,0,0,1-.639.639h-16.4v.493a8.779,8.779,0,0,0,.175,1.9,2.441,2.441,0,0,0,.624,1.219,2.529,2.529,0,0,0,1.191.639,7.8,7.8,0,0,0,1.873.188H-18.4q.667,0,.668.639v2.758q0,.639-.668.639Zm-32.806,0q-.668,0-.668-.639V-55.544a.77.77,0,0,1,.871-.871h15.59q3.337,0,4.79,1.509a6.217,6.217,0,0,1,1.452,4.471v2.148a6.214,6.214,0,0,1-1.452,4.47q-1.451,1.511-4.79,1.51H-60.21v5.574a.564.564,0,0,1-.638.639Zm3.774-15.968v5.923h11.12A2.811,2.811,0,0,0-47-46.778a2.724,2.724,0,0,0,.61-1.945v-1.1A2.723,2.723,0,0,0-47-51.771a2.811,2.811,0,0,0-2.09-.639H-59.832Q-60.21-52.41-60.21-52.061ZM-84.944-36.094a14.855,14.855,0,0,1-3.745-.407,5.718,5.718,0,0,1-2.512-1.32A5.334,5.334,0,0,1-92.623-40.2a12.207,12.207,0,0,1-.45-3.556v-12.02c0-.425.221-.638.667-.638h3.136a.565.565,0,0,1,.639.638v11.584a8.263,8.263,0,0,0,.189,1.931,2.6,2.6,0,0,0,.624,1.219,2.432,2.432,0,0,0,1.176.639,7.738,7.738,0,0,0,1.872.188h8.042a7.746,7.746,0,0,0,1.873-.188,2.425,2.425,0,0,0,1.175-.639,2.5,2.5,0,0,0,.61-1.219,8.945,8.945,0,0,0,.174-1.931V-55.778a.565.565,0,0,1,.639-.638h3.164a.565.565,0,0,1,.639.638v12.02A12.63,12.63,0,0,1-68.89-40.2,5.234,5.234,0,0,1-70.3-37.821a5.726,5.726,0,0,1-2.525,1.32,15.044,15.044,0,0,1-3.76.407Z"
              transform="translate(93.298 56.416)"
              fill="#fff"
            />
            <path
              id="Certifica_F치cil"
              data-name="Certifica F치cil"
              d="M1.2-8.75a9.382,9.382,0,0,1,1.125-4.612A8.167,8.167,0,0,1,5.4-16.538a8.474,8.474,0,0,1,4.35-1.138,8.847,8.847,0,0,1,5.013,1.388A7.882,7.882,0,0,1,17.8-12.375H15.75a6.012,6.012,0,0,0-2.288-2.775,6.661,6.661,0,0,0-3.713-1,6.726,6.726,0,0,0-3.462.9,6.251,6.251,0,0,0-2.413,2.587A8.382,8.382,0,0,0,3-8.75a8.306,8.306,0,0,0,.875,3.9A6.269,6.269,0,0,0,6.288-2.275a6.726,6.726,0,0,0,3.462.9,6.725,6.725,0,0,0,3.713-.988A5.957,5.957,0,0,0,15.75-5.1H17.8a7.8,7.8,0,0,1-3.05,3.875A8.922,8.922,0,0,1,9.75.15,8.474,8.474,0,0,1,5.4-.988,8.19,8.19,0,0,1,2.325-4.15,9.311,9.311,0,0,1,1.2-8.75ZM33.625-7.525q0,.9-.05,1.375H22.25A5.494,5.494,0,0,0,23-3.5a4.416,4.416,0,0,0,1.775,1.663,5.194,5.194,0,0,0,2.4.562A4.82,4.82,0,0,0,30.038-2.1a3.874,3.874,0,0,0,1.538-2.225h1.85a5.78,5.78,0,0,1-2.138,3.263A6.536,6.536,0,0,1,27.175.2a6.884,6.884,0,0,1-3.45-.863,6.09,6.09,0,0,1-2.388-2.45,7.659,7.659,0,0,1-.862-3.712,7.825,7.825,0,0,1,.85-3.725A5.908,5.908,0,0,1,23.7-13a7.016,7.016,0,0,1,3.475-.85,6.669,6.669,0,0,1,3.413.85,5.874,5.874,0,0,1,2.25,2.288A6.524,6.524,0,0,1,33.625-7.525Zm-1.775-.05a4.85,4.85,0,0,0-.613-2.6A4.134,4.134,0,0,0,29.5-11.8a5.291,5.291,0,0,0-2.4-.55,4.768,4.768,0,0,0-3.325,1.25A4.992,4.992,0,0,0,22.25-7.575Zm6.725-3.65A4.277,4.277,0,0,1,40.338-13.2a5.646,5.646,0,0,1,2.912-.7v1.825h-.475a4.413,4.413,0,0,0-3.05,1.025,4.4,4.4,0,0,0-1.15,3.425V0h-1.75V-13.65h1.75Zm9.575-.95V-3.7a2.427,2.427,0,0,0,.475,1.725A2.339,2.339,0,0,0,50.3-1.5h1.6V0H50.025a3.845,3.845,0,0,1-2.75-.863,3.8,3.8,0,0,1-.9-2.837v-8.475h-1.9V-13.65h1.9v-3.425H48.15v3.425H51.9v1.475Zm7.5-4.05a1.227,1.227,0,0,1-.9-.375,1.257,1.257,0,0,1-.375-.925,1.216,1.216,0,0,1,.375-.912,1.249,1.249,0,0,1,.9-.363,1.249,1.249,0,0,1,.9.363,1.216,1.216,0,0,1,.375.912,1.257,1.257,0,0,1-.375.925A1.227,1.227,0,0,1,55.65-16.225Zm.875,2.575V0h-1.75V-13.65Zm9.35,1.475H62.7V0H60.95V-12.175h-1.9V-13.65h1.9v-.95a4.256,4.256,0,0,1,1.138-3.275,5.341,5.341,0,0,1,3.687-1.05v1.5a3.454,3.454,0,0,0-2.388.65A2.9,2.9,0,0,0,62.7-14.6v.95h3.175Zm3.625-4.05a1.227,1.227,0,0,1-.9-.375,1.257,1.257,0,0,1-.375-.925,1.216,1.216,0,0,1,.375-.912,1.249,1.249,0,0,1,.9-.363,1.249,1.249,0,0,1,.9.363,1.216,1.216,0,0,1,.375.912,1.257,1.257,0,0,1-.375.925A1.227,1.227,0,0,1,69.5-16.225Zm.875,2.575V0h-1.75V-13.65ZM73.55-6.825a7.75,7.75,0,0,1,.85-3.713,6.056,6.056,0,0,1,2.35-2.45,6.746,6.746,0,0,1,3.425-.863,6.664,6.664,0,0,1,4.162,1.25A5.659,5.659,0,0,1,86.45-9.2H84.575a3.838,3.838,0,0,0-1.512-2.312,4.811,4.811,0,0,0-2.887-.837,4.921,4.921,0,0,0-2.475.625,4.383,4.383,0,0,0-1.737,1.863,6.577,6.577,0,0,0-.638,3.038,6.655,6.655,0,0,0,.638,3.05A4.368,4.368,0,0,0,77.7-1.9a4.921,4.921,0,0,0,2.475.625,4.811,4.811,0,0,0,2.887-.838A3.848,3.848,0,0,0,84.575-4.45H86.45a5.725,5.725,0,0,1-2.125,3.375A6.586,6.586,0,0,1,80.175.2,6.746,6.746,0,0,1,76.75-.663a6.056,6.056,0,0,1-2.35-2.45A7.75,7.75,0,0,1,73.55-6.825ZM88.875-6.85a7.789,7.789,0,0,1,.838-3.688,6,6,0,0,1,2.325-2.45A6.58,6.58,0,0,1,95.4-13.85a6.124,6.124,0,0,1,3.363.9,5.238,5.238,0,0,1,2.037,2.3v-3h1.75V0H100.8V-3.025A5.482,5.482,0,0,1,98.737-.713,6.061,6.061,0,0,1,95.375.2a6.459,6.459,0,0,1-3.338-.875A6.063,6.063,0,0,1,89.712-3.15,7.864,7.864,0,0,1,88.875-6.85Zm11.925.025a6.01,6.01,0,0,0-.675-2.9,4.816,4.816,0,0,0-1.838-1.925,5.011,5.011,0,0,0-2.562-.675,5.191,5.191,0,0,0-2.6.65,4.607,4.607,0,0,0-1.812,1.887A6.14,6.14,0,0,0,90.65-6.85a6.233,6.233,0,0,0,.662,2.937,4.656,4.656,0,0,0,1.813,1.925,5.114,5.114,0,0,0,2.6.663A5.011,5.011,0,0,0,98.287-2a4.816,4.816,0,0,0,1.838-1.925A6.01,6.01,0,0,0,100.8-6.825Zm22.05-10.65v1.45h-7.7V-9.5h6.5v1.45h-6.5V0H113.4V-17.475ZM124.925-6.85a7.789,7.789,0,0,1,.838-3.688,6,6,0,0,1,2.325-2.45,6.58,6.58,0,0,1,3.363-.863,6.124,6.124,0,0,1,3.362.9,5.238,5.238,0,0,1,2.038,2.3v-3h1.75V0h-1.75V-3.025a5.482,5.482,0,0,1-2.062,2.313A6.061,6.061,0,0,1,131.425.2a6.459,6.459,0,0,1-3.337-.875,6.063,6.063,0,0,1-2.325-2.475A7.864,7.864,0,0,1,124.925-6.85Zm11.925.025a6.01,6.01,0,0,0-.675-2.9,4.816,4.816,0,0,0-1.837-1.925,5.011,5.011,0,0,0-2.562-.675,5.191,5.191,0,0,0-2.6.65,4.607,4.607,0,0,0-1.812,1.887A6.14,6.14,0,0,0,126.7-6.85a6.233,6.233,0,0,0,.662,2.937,4.656,4.656,0,0,0,1.813,1.925,5.114,5.114,0,0,0,2.6.663A5.011,5.011,0,0,0,134.337-2a4.816,4.816,0,0,0,1.837-1.925A6.01,6.01,0,0,0,136.85-6.825Zm-2.35-10.85L129.375-14.7v-1.35l5.125-3.2Zm7.3,10.85a7.751,7.751,0,0,1,.85-3.713,6.056,6.056,0,0,1,2.35-2.45,6.746,6.746,0,0,1,3.425-.863,6.664,6.664,0,0,1,4.163,1.25A5.659,5.659,0,0,1,154.7-9.2h-1.875a3.838,3.838,0,0,0-1.513-2.312,4.811,4.811,0,0,0-2.887-.837,4.921,4.921,0,0,0-2.475.625,4.383,4.383,0,0,0-1.738,1.863,6.577,6.577,0,0,0-.637,3.038,6.655,6.655,0,0,0,.637,3.05A4.368,4.368,0,0,0,145.95-1.9a4.921,4.921,0,0,0,2.475.625,4.811,4.811,0,0,0,2.887-.838,3.848,3.848,0,0,0,1.513-2.338H154.7a5.725,5.725,0,0,1-2.125,3.375A6.586,6.586,0,0,1,148.425.2,6.746,6.746,0,0,1,145-.663a6.056,6.056,0,0,1-2.35-2.45A7.751,7.751,0,0,1,141.8-6.825Zm17-9.4a1.227,1.227,0,0,1-.9-.375,1.257,1.257,0,0,1-.375-.925,1.216,1.216,0,0,1,.375-.912,1.249,1.249,0,0,1,.9-.363,1.249,1.249,0,0,1,.9.363,1.216,1.216,0,0,1,.375.912,1.257,1.257,0,0,1-.375.925A1.227,1.227,0,0,1,158.8-16.225Zm.875,2.575V0h-1.75V-13.65ZM165.4-18.5V0h-1.75V-18.5Z"
              transform="translate(253 18.661)"
              fill="#fff"
              opacity="0.65"
            />
          </g>
        </svg>